<svg width="128" height="128" viewBox="0 0 128 128" fill="none" xmlns="http://www.w3.org/2000/svg">
<path d="M93.1524 65.8489L63.9978 94.8612L34.8433 65.8489C33.2789 64.2845 30.5767 64.2845 29.0123 65.8489C27.448 67.4133 27.448 70.1154 29.0123 71.6798L61.1535 103.537C62.0068 104.39 63.0023 104.674 63.9978 104.674C64.9933 104.674 66.1311 104.248 66.8422 103.537L98.9833 71.6798C100.548 70.1154 100.548 67.4133 98.9833 65.8489C97.4189 64.2845 94.859 64.2845 93.1524 65.8489Z" fill="#00E4E4"/>
<path d="M93.1524 34.1344L63.9978 63.0046L34.8433 34.1344C33.2789 32.57 30.5767 32.57 29.0123 34.1344C27.448 35.6988 27.448 38.4009 29.0123 39.9653L61.1535 71.822C62.0068 72.6753 63.0023 72.9598 63.9978 72.9598C64.9933 72.9598 66.1311 72.5331 66.8422 71.822L98.9833 39.9653C100.548 38.4009 100.548 35.6988 98.9833 34.1344C97.4189 32.57 94.859 32.4278 93.1524 34.1344Z" fill="#00E4E4"/>
<path d="M64.4245 0.0022708C47.3584 -0.139947 31.1456 6.40205 19.0571 18.4905C6.82643 30.4368 0.142217 46.5074 0 63.5734V64.0001C0 99.1278 28.5857 127.713 63.5712 127.998C98.8411 128.282 127.711 99.6966 127.996 64.0001C127.996 28.8724 99.4099 0.286706 64.4245 0.0022708ZM63.7134 119.323C33.2789 119.18 8.67526 94.2924 8.67526 64.0001V63.5734C8.81748 48.7828 14.6484 34.9877 25.1725 24.4637C35.5543 14.224 49.4916 8.53531 64.2822 8.67753C94.5745 8.81975 119.32 33.7078 119.32 64.4267C119.178 94.8613 94.1479 119.607 63.7134 119.323Z" fill="#00E4E4"/>
</svg>
